<?xml version="1.0" ?>
<!-- Uploaded to: SVG Repo, www.svgrepo.com, Generator: SVG Repo Mixer Tools -->
<svg width="800px" height="800px" viewBox="0 0 24 24" version="1.1" xml:space="preserve" xmlns="http://www.w3.org/2000/svg" xmlns:xlink="http://www.w3.org/1999/xlink">
<style type="text/css">
	.st0{opacity:0.2;fill:none;stroke:#000000;stroke-width:5.000000e-02;stroke-miterlimit:10;}
	.st1{fill:none;stroke:#000000;stroke-width:2;stroke-linecap:round;stroke-linejoin:round;stroke-miterlimit:10;}
</style>
<g id="Layer_1"/>
<g id="Layer_2">
<path d="M18.4,11.4h-1c-0.3-1.3-1-2.4-2.1-3.1c-0.5-0.3-1-0.5-1.5-0.6C13.3,6.1,11.8,5,10,5C8.1,5,6.4,6.4,6,8.2H5.2   C3.5,8.2,2,9.7,2,11.5v0.2c0,1.4,0.8,2.6,2,3.1c0,0.1,0,0.2,0,0.3v0.2c0,2,1.6,3.7,3.6,3.7h10.9c2,0,3.6-1.7,3.6-3.7v-0.2   C22,13.1,20.4,11.4,18.4,11.4z M4,11.5c0-0.7,0.6-1.3,1.2-1.3h1.6c0.6,0,1-0.4,1-1C7.9,8,8.8,7,10,7c0.7,0,1.3,0.3,1.7,0.9   c0,0-0.1,0-0.1,0.1C11.5,8,11.4,8,11.3,8c-0.2,0.1-0.3,0.1-0.4,0.2c-0.1,0-0.1,0.1-0.2,0.1c-0.2,0.1-0.3,0.2-0.5,0.3   c0,0-0.1,0-0.1,0.1C9.9,8.9,9.8,9.1,9.6,9.2c0,0.1-0.1,0.1-0.1,0.2C9.4,9.5,9.3,9.7,9.2,9.8c0,0.1-0.1,0.1-0.1,0.2   c-0.1,0.1-0.2,0.3-0.2,0.5c0,0.1-0.1,0.1-0.1,0.2c-0.1,0.2-0.2,0.5-0.2,0.7h-1c-0.3,0-0.5,0-0.7,0.1c-0.1,0-0.1,0-0.2,0   c-0.2,0.1-0.5,0.1-0.7,0.3c0,0-0.1,0-0.1,0.1c-0.2,0.1-0.4,0.2-0.5,0.4c0,0-0.1,0-0.1,0.1c-0.2,0.2-0.3,0.3-0.5,0.5   c0,0,0,0-0.1,0.1C4.3,12.7,4,12.2,4,11.7V11.5z M20,15.3c0,0.9-0.7,1.7-1.6,1.7H7.6C6.7,17,6,16.2,6,15.3v-0.2c0-0.2,0-0.5,0.1-0.7   c0.3-0.6,0.8-1,1.4-1h1.9c0.6,0,1-0.4,1-1c0-1.5,1.1-2.7,2.6-2.7c0.4,0,0.9,0.1,1.3,0.4c0.8,0.5,1.3,1.4,1.3,2.4c0,0.6,0.4,1,1,1   h1.9c0.9,0,1.6,0.8,1.6,1.7V15.3z"/>
</g>
</svg>