<?xml version="1.0" encoding="utf-8"?>
<svg width="800px" height="800px" viewBox="0 0 24 24" fill="none" xmlns="http://www.w3.org/2000/svg">
  <path fill-rule="evenodd" clip-rule="evenodd" d="M 11.046 5.446 L 11.046 1.454 C 11.046 0.854 11.81 0.553 12.257 0.978 L 14.927 3.517 C 15.204 3.78 15.204 4.207 14.927 4.47 L 12.473 6.803 L 14.927 9.136 C 15.204 9.4 15.204 9.828 14.927 10.091 L 12.257 12.63 C 11.81 13.054 11.046 12.753 11.046 12.153 L 11.046 8.16 L 10.088 9.07 C 10.081 9.078 10.075 9.086 10.066 9.092 L 9.159 9.955 C 8.928 10.175 8.553 10.175 8.322 9.955 C 8.09 9.736 8.09 9.379 8.322 9.16 L 9.228 8.297 C 9.236 8.291 9.242 8.284 9.249 8.279 L 10.8 6.803 L 9.278 5.355 C 9.271 5.35 9.265 5.344 9.259 5.338 L 8.32 4.446 C 8.09 4.227 8.09 3.87 8.32 3.651 C 8.552 3.432 8.927 3.432 9.158 3.651 L 10.096 4.543 C 10.101 4.549 10.107 4.554 10.113 4.561 L 11.046 5.446 Z M 12.228 2.54 L 12.228 5.446 L 13.756 3.993 L 12.228 2.54 Z M 12.228 11.066 L 13.756 9.614 L 12.228 8.16 L 12.228 11.066 Z" style="fill: rgb(35, 38, 52);"/>
</svg>