<?xml version="1.0" encoding="utf-8"?>
<svg viewBox="0 0 500 500" xmlns="http://www.w3.org/2000/svg">
  <title>urgent</title>
  <g id="Layer_2" data-name="Layer 2" transform="matrix(9.737123, 0, 0, 8.919725, 15.235226, 69.98719)" style="">
    <g id="invisible_box" data-name="invisible box">
      <rect width="48" height="48" x="-0.927" y="-4.746" fill="none" style="fill-rule: nonzero;"/>
    </g>
  </g>
  <path d="M 180.864 22.965 C 168.931 22.965 159.296 32.823 159.296 44.969 C 159.296 57.117 168.931 66.975 180.864 66.975 L 180.864 22.965 Z M 274.992 66.975 C 286.899 66.975 296.56 57.117 296.56 44.969 C 296.56 32.823 286.899 22.965 274.992 22.965 L 274.992 66.975 Z M 283.39 371.488 C 271.484 371.488 261.82 381.346 261.82 393.492 C 261.82 405.638 271.484 415.495 283.39 415.495 L 283.39 371.488 Z M 350.253 393.492 L 350.253 415.495 L 350.511 415.495 L 350.253 393.492 Z M 389.624 369.464 L 408.375 380.347 C 408.834 379.526 409.236 378.704 409.582 377.825 L 389.624 369.464 Z M 383.181 313.924 L 362.591 320.466 C 363.281 322.755 364.344 324.925 365.755 326.861 L 383.181 313.924 Z M 366.359 226.727 L 387.841 224.789 C 387.785 224.205 387.726 223.587 387.611 223 L 366.359 226.727 Z M 343.093 129.409 C 335.098 120.4 321.466 119.727 312.637 127.883 C 303.808 136.04 303.118 149.974 311.113 158.983 L 343.093 129.409 Z M 283.132 415.583 C 295.065 415.583 304.7 405.725 304.7 393.58 C 304.7 381.434 295.065 371.576 283.132 371.576 L 283.132 415.583 Z M 172.38 371.576 C 160.475 371.576 150.813 381.434 150.813 393.58 C 150.813 405.725 160.475 415.583 172.38 415.583 L 172.38 371.576 Z M 304.988 393.58 C 304.988 381.434 295.324 371.576 283.418 371.576 C 271.513 371.576 261.85 381.434 261.85 393.58 L 304.988 393.58 Z M 193.951 393.58 C 193.951 381.434 184.286 371.576 172.38 371.576 C 160.475 371.576 150.813 381.434 150.813 393.58 L 193.951 393.58 Z M 172.38 415.583 C 184.286 415.583 193.951 405.725 193.951 393.58 C 193.951 381.434 184.286 371.576 172.38 371.576 L 172.38 415.583 Z M 105.547 393.58 L 105.489 415.583 L 105.547 415.583 L 105.547 393.58 Z M 98.614 370.372 C 87.341 366.382 75.062 372.454 71.15 383.926 C 67.239 395.399 73.193 407.927 84.437 411.916 L 98.614 370.372 Z M 437.651 60.343 C 445.992 51.629 445.818 37.695 437.276 29.215 C 428.736 20.735 415.105 20.911 406.764 29.597 L 437.651 60.343 Z M 311.947 128.822 C 303.636 137.536 303.808 151.473 312.32 159.95 C 320.862 168.429 334.522 168.253 342.833 159.57 L 311.947 128.822 Z M 14.208 440.347 C 5.897 449.059 6.068 462.996 14.61 471.476 C 23.123 479.956 36.784 479.779 45.096 471.094 L 14.208 440.347 Z M 106.783 406.548 C 115.121 397.833 114.95 383.897 106.408 375.419 C 97.866 366.939 84.236 367.115 75.896 375.801 L 106.783 406.548 Z M 342.747 159.659 C 351.058 150.943 350.887 137.008 342.374 128.528 C 333.833 120.05 320.173 120.226 311.861 128.908 L 342.747 159.659 Z M 75.896 375.801 C 67.585 384.513 67.756 398.45 76.298 406.93 C 84.81 415.407 98.472 415.233 106.783 406.548 L 75.896 375.801 Z M 270.909 129.144 C 281.837 133.987 294.518 128.88 299.264 117.732 C 304.038 106.583 299.006 93.614 288.076 88.774 L 270.909 129.144 Z M 227.914 98.015 L 227.885 76.011 C 227.684 76.011 227.455 76.011 227.252 76.011 L 227.914 98.015 Z M 89.269 226.873 L 67.929 223.735 C 67.873 224.117 67.815 224.527 67.786 224.937 L 89.269 226.873 Z M 72.445 314.07 L 91.282 324.81 C 92 323.458 92.606 322.051 93.035 320.614 L 72.445 314.07 Z M 42.882 329.209 C 39.458 340.856 45.9 353.121 57.319 356.612 C 68.734 360.133 80.756 353.531 84.177 341.885 L 42.882 329.209 Z M 180.864 66.975 L 274.992 66.975 L 274.992 22.965 L 180.864 22.965 L 180.864 66.975 Z M 283.39 415.495 L 350.253 415.495 L 350.253 371.488 L 283.39 371.488 L 283.39 415.495 Z M 350.511 415.495 C 374.613 415.174 396.498 401.648 408.375 380.347 L 370.873 358.577 C 366.388 366.645 358.364 371.37 349.966 371.488 L 350.511 415.495 Z M 409.582 377.825 C 419.82 352.416 416.485 323.194 400.639 300.985 L 365.755 326.861 C 372.715 336.66 374.267 349.718 369.694 361.101 L 409.582 377.825 Z M 403.772 307.409 C 395.605 280.565 390.257 252.867 387.841 224.789 L 344.876 228.662 C 347.58 259.822 353.504 290.627 362.591 320.466 L 403.772 307.409 Z M 387.611 223 C 381.715 188.028 366.272 155.521 343.093 129.409 L 311.113 158.983 C 328.742 178.816 340.591 203.637 345.106 230.454 L 387.611 223 Z M 283.132 371.576 L 172.38 371.576 L 172.38 415.583 L 283.132 415.583 L 283.132 371.576 Z M 261.85 393.58 C 261.85 406.753 255.148 418.636 244.681 424.944 L 266.651 462.82 C 290.551 448.387 304.988 421.922 304.988 393.58 L 261.85 393.58 Z M 244.681 424.944 C 234.27 431.251 221.531 431.251 211.12 424.944 L 189.147 462.82 C 213.103 477.285 242.695 477.285 266.651 462.82 L 244.681 424.944 Z M 211.12 424.944 C 200.679 418.636 193.951 406.753 193.951 393.58 L 150.813 393.58 C 150.813 421.922 165.278 448.387 189.147 462.82 L 211.12 424.944 Z M 172.38 371.576 L 105.547 371.576 L 105.547 415.583 L 172.38 415.583 L 172.38 371.576 Z M 105.574 371.576 C 103.218 371.576 100.859 371.165 98.614 370.372 L 84.437 411.916 C 91.195 414.323 98.328 415.554 105.489 415.583 L 105.574 371.576 Z M 406.764 29.597 L 311.947 128.822 L 342.833 159.57 L 437.651 60.343 L 406.764 29.597 Z M 45.096 471.094 L 106.783 406.548 L 75.896 375.801 L 14.208 440.347 L 45.096 471.094 Z M 311.861 128.908 L 75.896 375.801 L 106.783 406.548 L 342.747 159.659 L 311.861 128.908 Z M 288.076 88.774 C 269.067 80.354 248.593 76.011 227.885 76.011 L 227.914 120.021 C 242.668 120.021 257.277 123.1 270.909 129.144 L 288.076 88.774 Z M 227.252 76.011 C 146.47 78.505 79.663 141.115 67.929 223.735 L 110.607 230.043 C 119.465 167.784 169.476 121.839 228.546 120.021 L 227.252 76.011 Z M 67.786 224.937 C 65.369 253.015 60.021 280.711 51.854 307.556 L 93.035 320.614 C 102.124 290.775 108.078 259.97 110.751 228.809 L 67.786 224.937 Z M 53.608 303.33 C 49.149 311.516 45.525 320.203 42.882 329.209 L 84.177 341.885 C 85.933 335.928 88.319 330.208 91.282 324.81 L 53.608 303.33 Z" style="fill-rule: nonzero; fill: rgb(35, 38, 52);"/>
</svg>