<?xml version="1.0" encoding="utf-8"?>
<svg width="800px" height="800px" viewBox="0 0 24 24" fill="none" xmlns="http://www.w3.org/2000/svg">
  <path fill-rule="evenodd" clip-rule="evenodd" d="M 11.137 4.816 L 12.906 6.514 L 14.748 4.746 C 15.005 4.499 15.005 4.098 14.748 3.85 L 12.263 1.467 C 11.848 1.068 11.137 1.351 11.137 1.915 L 11.137 4.816 Z M 12.237 5.664 L 12.237 2.934 L 13.659 4.298 L 12.237 5.664 Z" style="fill: rgb(65, 69, 89);"/>
  <path d="M 14.015 10.726 L 13.238 9.98 L 12.237 10.94 L 12.237 9.019 L 10.488 7.341 L 9.466 8.323 C 9.46 8.327 9.454 8.334 9.447 8.339 L 8.603 9.149 C 8.388 9.356 8.388 9.691 8.603 9.897 C 8.818 10.103 9.167 10.103 9.382 9.897 L 10.226 9.086 C 10.233 9.08 10.24 9.073 10.247 9.066 L 11.137 8.211 L 11.137 11.959 C 11.137 12.524 11.848 12.806 12.263 12.407 L 14.015 10.726 Z" style="fill: rgb(65, 69, 89);"/>
  <path d="M 6.193 2.411 C 5.978 2.204 5.978 1.87 6.193 1.664 C 6.407 1.458 6.755 1.458 6.97 1.664 L 17.187 11.468 C 17.401 11.675 17.401 12.008 17.187 12.215 C 16.971 12.421 16.623 12.421 16.409 12.215 L 6.193 2.411 Z" style="fill: rgb(65, 69, 89);"/>
</svg>