<?xml version="1.0" encoding="utf-8"?>
<svg viewBox="0 0 500 500" xmlns="http://www.w3.org/2000/svg">
  <title>urgent</title>
  <g id="Layer_2" data-name="Layer 2" transform="matrix(9.737123, 0, 0, 8.919725, 13.367386, 12.157593)" style="">
    <g id="invisible_box" data-name="invisible box">
      <rect width="48" height="48" fill="none"/>
    </g>
  </g>
  <path d="M 207.397 28.129 C 194.563 28.129 184.202 37.825 184.202 49.835 C 184.202 61.817 194.563 71.542 207.397 71.542 L 207.397 28.129 Z M 297.867 71.542 C 310.671 71.542 321.065 61.817 321.065 49.835 C 321.065 37.825 310.671 28.129 297.867 28.129 L 297.867 71.542 Z M 199.266 383.199 C 199.109 371.214 188.593 361.609 175.79 361.781 C 162.954 361.926 152.714 371.765 152.902 383.776 L 199.266 383.199 Z M 252.617 455 L 252.926 433.295 C 252.709 433.295 252.524 433.295 252.308 433.295 L 252.617 455 Z M 352.333 383.776 C 352.518 371.765 342.283 361.926 329.447 361.781 C 316.64 361.609 306.125 371.214 305.971 383.199 L 352.333 383.776 Z M 176.036 405.193 C 188.871 405.193 199.233 395.467 199.233 383.487 C 199.233 371.476 188.871 361.781 176.036 361.781 L 176.036 405.193 Z M 142.047 383.487 L 141.828 405.193 L 142.047 405.193 L 142.047 383.487 Z M 86.775 329.629 L 109.972 329.773 L 109.972 329.629 L 86.775 329.629 Z M 109.043 257.51 L 86.094 254.268 L 109.043 257.51 Z M 115.076 216.994 L 137.93 220.786 C 137.963 220.498 138.024 220.207 138.057 219.917 L 115.076 216.994 Z M 252.617 97.499 L 253.576 75.793 C 252.926 75.767 252.308 75.767 251.659 75.793 L 252.617 97.499 Z M 390.158 216.907 L 367.179 219.861 C 367.211 220.091 367.244 220.351 367.302 220.581 L 390.158 216.907 Z M 396.191 257.423 L 419.141 254.183 L 419.109 254.152 L 396.191 257.423 Z M 418.49 329.542 L 395.263 329.542 L 395.293 329.686 L 418.49 329.542 Z M 363.19 383.43 L 363.19 405.136 L 363.407 405.136 L 363.19 383.43 Z M 329.168 361.724 C 316.332 361.724 305.971 371.419 305.971 383.43 C 305.971 395.409 316.332 405.136 329.168 405.136 L 329.168 361.724 Z M 176.036 361.724 C 163.232 361.724 152.841 371.419 152.841 383.43 C 152.841 395.409 163.232 405.136 176.036 405.136 L 176.036 361.724 Z M 329.168 405.136 C 341.972 405.136 352.364 395.409 352.364 383.43 C 352.364 371.419 341.972 361.724 329.168 361.724 L 329.168 405.136 Z M 207.397 71.542 L 297.867 71.542 L 297.867 28.129 L 207.397 28.129 L 207.397 71.542 Z M 152.902 383.776 C 153.613 435.261 197.872 477.398 252.926 476.702 L 252.308 433.295 C 223.947 433.64 199.665 411.763 199.266 383.199 L 152.902 383.776 Z M 252.308 476.702 C 307.361 477.398 351.622 435.261 352.333 383.776 L 305.971 383.199 C 305.568 411.763 281.288 433.64 252.926 433.295 L 252.308 476.702 Z M 176.036 361.781 L 142.047 361.781 L 142.047 405.193 L 176.036 405.193 L 176.036 361.781 Z M 142.232 361.781 C 124.818 361.637 109.815 347.831 109.941 329.773 L 63.577 329.456 C 63.269 370.434 97.754 404.846 141.828 405.193 L 142.232 361.781 Z M 109.972 329.629 C 109.972 321.612 112.847 313.307 117.921 301.584 C 122.469 291.022 129.457 276.409 131.993 260.722 L 86.094 254.268 C 84.609 263.616 80.465 272.386 74.898 285.323 C 69.825 297.073 63.577 312.352 63.577 329.629 L 109.972 329.629 Z M 131.993 260.753 C 134.84 243.042 136.198 229.784 137.93 220.786 L 92.251 213.202 C 90.579 222.029 88.322 240.552 86.094 254.268 L 131.993 260.753 Z M 138.057 219.917 C 146.314 163.454 195.305 121.432 253.576 119.174 L 251.659 75.793 C 170.098 78.949 103.291 137.522 92.094 214.041 L 138.057 219.917 Z M 251.659 119.174 C 309.93 121.403 358.89 163.395 367.179 219.861 L 413.14 213.955 C 401.913 137.467 335.105 78.949 253.576 75.793 L 251.659 119.174 Z M 367.302 220.581 C 369.005 229.901 370.395 242.953 373.242 260.663 L 419.109 254.152 C 416.913 240.609 414.626 221.885 413.017 213.202 L 367.302 220.581 Z M 373.242 260.635 C 375.778 276.322 382.767 290.935 387.315 301.5 C 392.387 313.22 395.293 321.525 395.293 329.542 L 441.687 329.542 C 441.687 312.264 435.408 296.984 430.336 285.237 C 424.769 272.299 420.624 263.531 419.141 254.183 L 373.242 260.635 Z M 395.293 329.686 C 395.417 347.775 380.418 361.579 363.004 361.724 L 363.407 405.136 C 407.512 404.788 441.998 370.349 441.656 329.369 L 395.293 329.686 Z M 363.19 361.724 L 329.168 361.724 L 329.168 405.136 L 363.19 405.136 L 363.19 361.724 Z M 176.036 405.136 L 329.168 405.136 L 329.168 361.724 L 176.036 361.724 L 176.036 405.136 Z" style="fill: rgb(153, 209, 219);"/>
</svg>