<?xml version="1.0" encoding="utf-8"?>
<svg viewBox="0 0 500 500" xmlns="http://www.w3.org/2000/svg">
  <title>urgent</title>
  <g id="Layer_2" data-name="Layer 2" transform="matrix(9.737123, 0, 0, 8.919725, 13.367386, 12.157593)" style="">
    <g id="invisible_box" data-name="invisible box">
      <rect width="48" height="48" fill="none"/>
    </g>
  </g>
  <path d="M 209.116 9.713 C 197.183 9.713 187.548 19.571 187.548 31.717 C 187.548 43.865 197.183 53.723 209.116 53.723 L 209.116 9.713 Z M 303.244 53.723 C 315.151 53.723 324.812 43.865 324.812 31.717 C 324.812 19.571 315.151 9.713 303.244 9.713 L 303.244 53.723 Z M 311.642 358.236 C 299.736 358.236 290.072 368.094 290.072 380.24 C 290.072 392.386 299.736 402.243 311.642 402.243 L 311.642 358.236 Z M 378.505 380.24 L 378.505 402.243 L 378.763 402.243 L 378.505 380.24 Z M 417.876 356.212 L 436.627 367.095 C 437.086 366.274 437.488 365.452 437.834 364.573 L 417.876 356.212 Z M 411.433 300.672 L 390.843 307.214 C 391.533 309.503 392.596 311.673 394.007 313.609 L 411.433 300.672 Z M 394.611 213.475 L 416.093 211.537 C 416.037 210.953 415.978 210.335 415.863 209.748 L 394.611 213.475 Z M 371.345 116.157 C 363.35 107.148 349.718 106.475 340.889 114.631 C 332.06 122.788 331.37 136.722 339.365 145.731 L 371.345 116.157 Z M 311.384 402.331 C 323.317 402.331 332.952 392.473 332.952 380.328 C 332.952 368.182 323.317 358.324 311.384 358.324 L 311.384 402.331 Z M 200.632 358.324 C 188.727 358.324 179.065 368.182 179.065 380.328 C 179.065 392.473 188.727 402.331 200.632 402.331 L 200.632 358.324 Z M 333.24 380.328 C 333.24 368.182 323.576 358.324 311.67 358.324 C 299.765 358.324 290.102 368.182 290.102 380.328 L 333.24 380.328 Z M 222.203 380.328 C 222.203 368.182 212.538 358.324 200.632 358.324 C 188.727 358.324 179.065 368.182 179.065 380.328 L 222.203 380.328 Z M 200.632 402.331 C 212.538 402.331 222.203 392.473 222.203 380.328 C 222.203 368.182 212.538 358.324 200.632 358.324 L 200.632 402.331 Z M 133.799 380.328 L 133.741 402.331 L 133.799 402.331 L 133.799 380.328 Z M 126.866 357.12 C 115.593 353.13 103.314 359.202 99.402 370.674 C 95.491 382.147 101.445 394.675 112.689 398.664 L 126.866 357.12 Z M 465.903 47.091 C 474.244 38.377 474.07 24.443 465.528 15.963 C 456.988 7.483 443.357 7.659 435.016 16.345 L 465.903 47.091 Z M 340.199 115.57 C 331.888 124.284 332.06 138.221 340.572 146.698 C 349.114 155.177 362.774 155.001 371.085 146.318 L 340.199 115.57 Z M 42.46 427.095 C 34.149 435.807 34.32 449.744 42.862 458.224 C 51.375 466.704 65.036 466.527 73.348 457.842 L 42.46 427.095 Z M 135.035 393.296 C 143.373 384.581 143.202 370.645 134.66 362.167 C 126.118 353.687 112.488 353.863 104.148 362.549 L 135.035 393.296 Z M 370.999 146.407 C 379.31 137.691 379.139 123.756 370.626 115.276 C 362.085 106.798 348.425 106.974 340.113 115.656 L 370.999 146.407 Z M 104.148 362.549 C 95.837 371.261 96.008 385.198 104.55 393.678 C 113.062 402.155 126.724 401.981 135.035 393.296 L 104.148 362.549 Z M 299.161 115.892 C 310.089 120.735 322.77 115.628 327.516 104.48 C 332.29 93.331 327.258 80.362 316.328 75.522 L 299.161 115.892 Z M 256.166 84.763 L 256.137 62.759 C 255.936 62.759 255.707 62.759 255.504 62.759 L 256.166 84.763 Z M 117.521 213.621 L 96.181 210.483 C 96.125 210.865 96.067 211.275 96.038 211.685 L 117.521 213.621 Z M 100.697 300.818 L 119.534 311.558 C 120.252 310.206 120.858 308.799 121.287 307.362 L 100.697 300.818 Z M 71.134 315.957 C 67.71 327.604 74.152 339.869 85.571 343.36 C 96.986 346.881 109.008 340.279 112.429 328.633 L 71.134 315.957 Z M 209.116 53.723 L 303.244 53.723 L 303.244 9.713 L 209.116 9.713 L 209.116 53.723 Z M 311.642 402.243 L 378.505 402.243 L 378.505 358.236 L 311.642 358.236 L 311.642 402.243 Z M 378.763 402.243 C 402.865 401.922 424.75 388.396 436.627 367.095 L 399.125 345.325 C 394.64 353.393 386.616 358.118 378.218 358.236 L 378.763 402.243 Z M 437.834 364.573 C 448.072 339.164 444.737 309.942 428.891 287.733 L 394.007 313.609 C 400.967 323.408 402.519 336.466 397.946 347.849 L 437.834 364.573 Z M 432.024 294.157 C 423.857 267.313 418.509 239.615 416.093 211.537 L 373.128 215.41 C 375.832 246.57 381.756 277.375 390.843 307.214 L 432.024 294.157 Z M 415.863 209.748 C 409.967 174.776 394.524 142.269 371.345 116.157 L 339.365 145.731 C 356.994 165.564 368.843 190.385 373.358 217.202 L 415.863 209.748 Z M 311.384 358.324 L 200.632 358.324 L 200.632 402.331 L 311.384 402.331 L 311.384 358.324 Z M 290.102 380.328 C 290.102 393.501 283.4 405.384 272.933 411.692 L 294.903 449.568 C 318.803 435.135 333.24 408.67 333.24 380.328 L 290.102 380.328 Z M 272.933 411.692 C 262.522 417.999 249.783 417.999 239.372 411.692 L 217.399 449.568 C 241.355 464.033 270.947 464.033 294.903 449.568 L 272.933 411.692 Z M 239.372 411.692 C 228.931 405.384 222.203 393.501 222.203 380.328 L 179.065 380.328 C 179.065 408.67 193.53 435.135 217.399 449.568 L 239.372 411.692 Z M 200.632 358.324 L 133.799 358.324 L 133.799 402.331 L 200.632 402.331 L 200.632 358.324 Z M 133.826 358.324 C 131.47 358.324 129.111 357.913 126.866 357.12 L 112.689 398.664 C 119.447 401.071 126.58 402.302 133.741 402.331 L 133.826 358.324 Z M 435.016 16.345 L 340.199 115.57 L 371.085 146.318 L 465.903 47.091 L 435.016 16.345 Z M 73.348 457.842 L 135.035 393.296 L 104.148 362.549 L 42.46 427.095 L 73.348 457.842 Z M 340.113 115.656 L 104.148 362.549 L 135.035 393.296 L 370.999 146.407 L 340.113 115.656 Z M 316.328 75.522 C 297.319 67.102 276.845 62.759 256.137 62.759 L 256.166 106.769 C 270.92 106.769 285.529 109.848 299.161 115.892 L 316.328 75.522 Z M 255.504 62.759 C 174.722 65.253 107.915 127.863 96.181 210.483 L 138.859 216.791 C 147.717 154.532 197.728 108.587 256.798 106.769 L 255.504 62.759 Z M 96.038 211.685 C 93.621 239.763 88.273 267.459 80.106 294.304 L 121.287 307.362 C 130.376 277.523 136.33 246.718 139.003 215.557 L 96.038 211.685 Z M 81.86 290.078 C 77.401 298.264 73.777 306.951 71.134 315.957 L 112.429 328.633 C 114.185 322.676 116.571 316.956 119.534 311.558 L 81.86 290.078 Z" style="fill: rgb(153, 209, 219);"/>
</svg>