<?xml version="1.0" encoding="utf-8"?>
<svg width="800px" height="800px" viewBox="0 0 24 24" fill="none" xmlns="http://www.w3.org/2000/svg">
  <path opacity="0.1" d="M20.8667 15.3164C20.9187 15.1983 20.8006 15.0785 20.6792 15.1223C17.3165 16.3368 13.4497 15.6201 10.9124 13.0837C8.38689 10.5592 7.66861 6.7169 8.86147 3.36559C8.91069 3.22729 8.77418 3.09296 8.64021 3.15299C8.63117 3.15704 8.62214 3.16111 8.61311 3.16518C6.75765 4.00313 5.10654 5.4166 4.13683 7.19736C3.1002 9.10101 2.75831 11.3058 3.16975 13.4339C3.58119 15.5619 4.72034 17.4806 6.39193 18.861C8.06352 20.2414 10.1634 20.9977 12.3317 21C14.1962 21.0001 16.0181 20.4424 17.5629 19.3987C18.9891 18.4352 20.1189 16.9756 20.8311 15.3962C20.8431 15.3697 20.8549 15.343 20.8667 15.3164Z" fill="#323232"/>
  <path d="M 20.841 14.761 C 20.893 14.642 20.775 14.523 20.653 14.566 C 17.291 15.781 13.424 15.064 10.887 12.528 C 8.361 10.003 7.643 6.161 8.836 2.81 C 8.885 2.671 8.748 2.537 8.614 2.597 C 8.605 2.601 8.596 2.605 8.587 2.609 C 6.732 3.447 5.081 4.861 4.111 6.642 C 3.074 8.545 2.732 10.75 3.144 12.878 C 3.555 15.006 4.695 16.925 6.366 18.305 C 8.038 19.686 10.138 20.442 12.306 20.444 C 14.17 20.444 15.992 19.887 17.537 18.843 C 18.963 17.879 20.093 16.42 20.805 14.84 C 20.817 14.814 20.829 14.787 20.841 14.761 Z" stroke-width="2" stroke-linecap="round" stroke-linejoin="round" style="stroke: rgb(35, 38, 52);"/>
</svg>