<?xml version="1.0" encoding="utf-8"?>
<svg viewBox="0 0 500 500" xmlns="http://www.w3.org/2000/svg">
  <path d="M 210.9 271.365 C 211.754 300.297 247.856 317.576 275.89 302.465 C 288.242 295.798 295.912 284.096 296.282 271.365 C 296.282 266.942 295.257 262.77 293.664 258.835 L 213.52 258.835 C 211.839 262.846 210.943 267.08 210.9 271.365 Z" style="transform-box: fill-box; transform-origin: 50% 50%; fill: rgb(32, 159, 181);" transform="matrix(0.99997, 0.007714, -0.007714, 0.99997, 0, 0)"/>
  <path d="M 339.462 146.066 L 339.462 121.006 L 294.139 121.006 C 288.148 106.033 272.111 95.995 254.081 95.946 C 230.545 95.946 211.391 112.811 211.391 133.536 L 211.391 206.21 C 185.022 219.692 168.758 244.5 168.701 271.365 C 168.701 312.827 206.994 346.544 254.081 346.544 C 301.169 346.544 339.462 312.827 339.462 271.365 C 339.405 244.5 323.154 219.692 296.771 206.21 L 296.771 196.185 L 339.462 196.185 L 339.462 171.125 L 296.771 171.125 L 296.771 146.066 L 339.462 146.066 Z M 276.778 225.305 C 297.511 233.362 310.93 251.405 311.001 271.365 C 311.001 299.006 285.472 321.484 254.081 321.484 C 222.689 321.484 197.16 299.006 197.16 271.365 C 197.16 251.506 210.594 233.438 231.384 225.305 L 239.851 222.01 L 239.851 133.536 C 239.851 123.888 251.719 117.861 261.196 122.685 C 265.607 124.916 268.312 129.05 268.312 133.536 L 268.312 222.01 L 276.778 225.305 Z" style="transform-box: fill-box; transform-origin: 50% 50%; fill: rgb(32, 159, 181);" transform="matrix(0.99997, 0.007714, -0.007714, 0.99997, 0, 0)"/>
</svg>