<?xml version="1.0" encoding="utf-8"?>
<svg viewBox="0 0 500 500" xmlns="http://www.w3.org/2000/svg">
  <path d="M 422.21 137.778 L 108.815 137.778 L 108.815 101.587 L 41.66 101.587 L 41.66 119.683 L 86.431 119.683 L 86.431 137.778 L 86.431 164.921 L 52.852 164.921 C 46.67 164.921 41.66 168.972 41.66 173.969 L 41.66 228.257 C 41.66 233.255 46.67 237.305 52.852 237.305 L 86.431 237.305 L 86.431 255.4 L 52.852 255.4 C 46.67 255.4 41.66 259.45 41.66 264.448 L 41.66 318.736 C 41.66 323.734 46.67 327.783 52.852 327.783 L 86.431 327.783 L 86.431 354.927 L 86.431 391.118 L 108.815 391.118 L 108.815 354.927 L 131.201 354.927 L 131.201 373.022 C 131.201 383.001 141.243 391.118 153.587 391.118 C 186.112 391.118 277.543 391.118 310.283 391.118 C 322.628 391.118 332.669 383.001 332.669 373.022 L 332.669 354.927 L 355.055 354.927 L 355.055 373.022 C 355.055 383.001 365.096 391.118 377.44 391.118 L 399.824 391.118 C 412.169 391.118 422.21 383.001 422.21 373.022 L 422.21 354.927 C 434.571 354.927 444.596 346.823 444.596 336.831 L 444.596 155.875 C 444.596 145.882 434.571 137.778 422.21 137.778 Z M 86.431 309.688 L 64.046 309.688 L 64.046 273.497 L 86.431 273.497 L 86.431 309.688 Z M 86.431 219.209 L 64.046 219.209 L 64.046 183.018 L 86.431 183.018 L 86.431 219.209 Z M 175.972 373.022 C 175.252 373.022 152.158 373.022 153.587 373.022 L 153.587 354.927 L 175.972 354.927 L 175.972 373.022 Z M 220.742 373.022 L 198.357 373.022 L 198.357 354.927 L 220.742 354.927 L 220.742 373.022 Z M 265.514 373.022 L 243.128 373.022 L 243.128 354.927 L 265.514 354.927 L 265.514 373.022 Z M 310.283 373.022 C 309.562 373.022 286.471 373.022 287.899 373.022 L 287.899 354.927 L 310.283 354.927 L 310.283 373.022 Z M 399.824 373.022 L 377.44 373.022 L 377.44 354.927 L 399.824 354.927 L 399.824 373.022 Z M 411.018 327.783 L 120.009 327.783 L 120.009 164.921 L 411.018 164.921 L 411.018 327.783 Z" style="fill: rgb(138, 173, 244);" transform="matrix(0.9999999999999999, 0, 0, 0.9999999999999999, 0, -3.552713678800501e-15)"/>
  <path d="M 259.213 309.431 C 261.265 309.59 263.213 309.688 264.917 309.688 C 265.003 309.688 265.079 309.672 265.163 309.672 C 265.285 309.672 265.397 309.688 265.517 309.688 C 308.336 309.688 343.194 281.765 343.809 247.264 C 344.641 235.275 339.048 222.256 334.079 215.297 C 333.606 214.631 332.928 213.845 332.034 213.053 C 318.196 195.058 293.593 183.018 265.514 183.018 C 222.314 183.018 187.165 211.432 187.165 246.352 C 187.165 279.554 218.957 306.822 259.213 309.431 Z M 261.878 291.444 C 261.515 291.425 261.144 291.422 260.78 291.4 C 248.348 290.368 232.212 285.089 232.212 278.929 C 232.212 274.892 236.552 269.971 242.228 265.664 C 248.097 270.344 256.08 273.271 264.9 273.464 C 264.9 280.662 263.896 287.865 261.878 291.444 Z M 285.812 288.465 C 286.744 284.082 287.232 279.084 287.232 273.497 C 287.232 272.042 287.195 270.63 287.133 269.255 C 287.298 269.305 287.478 269.367 287.648 269.417 C 293.136 270.999 301.495 272.877 310.261 272.877 C 310.432 272.877 310.602 272.859 310.777 272.855 C 304.512 279.819 295.877 285.283 285.812 288.465 Z M 321.453 245.972 C 321.239 249.537 320.035 252.375 317.475 253.573 C 313.732 255.318 306.394 255.129 298.254 253.175 C 298.957 250.989 299.369 248.712 299.369 246.352 C 299.369 241.67 297.892 237.262 295.299 233.411 C 302.87 229.874 310.902 227.034 315.773 226.581 C 319.322 232.455 321.383 239.02 321.453 245.972 Z M 300.941 211.362 C 293.879 213.455 286.39 216.509 279.539 220.044 C 278.099 213.357 275.363 206.803 271.315 201.355 C 282.485 202.293 292.688 205.897 300.941 211.362 Z M 265.792 237.305 C 271.96 237.305 276.984 241.365 276.984 246.352 C 276.984 251.339 271.96 255.4 265.792 255.4 C 259.621 255.4 254.598 251.339 254.598 246.352 C 254.598 241.365 259.616 237.305 265.792 237.305 Z M 233.73 209.434 C 237.178 207.537 243.571 204.638 247.681 206.56 C 252.005 208.577 255.113 214.08 256.885 220.208 C 248.603 222.053 241.61 226.396 237.205 232.18 C 229.455 228.568 222.206 224.243 219.405 221.037 C 222.622 217.273 227.826 212.683 233.73 209.434 Z M 210.339 239.107 C 214.622 242.017 219.851 244.93 225.981 247.79 C 227.583 248.538 229.155 249.237 230.705 249.895 C 224.194 254.297 218.5 259.555 214.695 265.18 C 211.422 259.44 209.55 253.077 209.55 246.352 C 209.55 243.881 209.864 241.474 210.339 239.107 Z" style="fill: rgb(138, 173, 244);" transform="matrix(0.9999999999999999, 0, 0, 0.9999999999999999, 0, -3.552713678800501e-15)"/>
  <rect x="131.201" y="173.969" width="22.386" height="18.096" style="fill: rgb(138, 173, 244);" transform="matrix(0.9999999999999999, 0, 0, 0.9999999999999999, 0, -3.552713678800501e-15)"/>
  <rect x="131.201" y="300.64" width="22.386" height="18.096" style="fill: rgb(138, 173, 244);" transform="matrix(0.9999999999999999, 0, 0, 0.9999999999999999, 0, -3.552713678800501e-15)"/>
  <rect x="377.44" y="300.64" width="22.386" height="18.096" style="fill: rgb(138, 173, 244);" transform="matrix(0.9999999999999999, 0, 0, 0.9999999999999999, 0, -3.552713678800501e-15)"/>
  <rect x="377.44" y="173.969" width="22.386" height="18.096" style="fill: rgb(138, 173, 244);" transform="matrix(0.9999999999999999, 0, 0, 0.9999999999999999, 0, -3.552713678800501e-15)"/>
</svg>