<?xml version="1.0" encoding="utf-8"?>
<svg version="1.1" x="0px" y="0px" viewBox="0 0 96 120" enable-background="new 0 0 96 96" xmlns="http://www.w3.org/2000/svg">
  <path d="M30,30h36v36H30V30z" style="fill: rgb(4, 165, 229);"/>
  <path d="M90,30c1.1,0,2-0.896,2-2s-0.9-2-2-2h-8v-4h8c1.1,0,2-0.896,2-2s-0.9-2-2-2h-8v-2c0-1.104-0.9-2-2-2h-2V6c0-1.104-0.9-2-2-2  s-2,0.896-2,2v8h-4V6c0-1.104-0.9-2-2-2s-2,0.896-2,2v8h-4V6c0-1.104-0.9-2-2-2s-2,0.896-2,2v8h-4V6c0-1.104-0.9-2-2-2s-2,0.896-2,2  v8h-4V6c0-1.104-0.896-2-2-2s-2,0.896-2,2v8h-4V6c0-1.104-0.896-2-2-2s-2,0.896-2,2v8h-4V6c0-1.104-0.896-2-2-2s-2,0.896-2,2v8h-4V6  c0-1.104-0.896-2-2-2s-2,0.896-2,2v8h-2c-1.104,0-2,0.896-2,2v2H6c-1.104,0-2,0.896-2,2s0.896,2,2,2h8v4H6c-1.104,0-2,0.896-2,2  s0.896,2,2,2h8v4H6c-1.104,0-2,0.896-2,2s0.896,2,2,2h8v4H6c-1.104,0-2,0.896-2,2s0.896,2,2,2h8v4H6c-1.104,0-2,0.9-2,2s0.896,2,2,2  h8v4H6c-1.104,0-2,0.9-2,2s0.896,2,2,2h8v4H6c-1.104,0-2,0.9-2,2s0.896,2,2,2h8v4H6c-1.104,0-2,0.9-2,2s0.896,2,2,2h8v2  c0,1.1,0.896,2,2,2h2v8c0,1.1,0.896,2,2,2s2-0.9,2-2v-8h4v8c0,1.1,0.896,2,2,2s2-0.9,2-2v-8h4v8c0,1.1,0.896,2,2,2s2-0.9,2-2v-8h4v8  c0,1.1,0.896,2,2,2s2-0.9,2-2v-8h4v8c0,1.1,0.9,2,2,2s2-0.9,2-2v-8h4v8c0,1.1,0.9,2,2,2s2-0.9,2-2v-8h4v8c0,1.1,0.9,2,2,2s2-0.9,2-2  v-8h4v8c0,1.1,0.9,2,2,2s2-0.9,2-2v-8h2c1.1,0,2-0.9,2-2v-2h8c1.1,0,2-0.9,2-2s-0.9-2-2-2h-8v-4h8c1.1,0,2-0.9,2-2s-0.9-2-2-2h-8v-4  h8c1.1,0,2-0.9,2-2s-0.9-2-2-2h-8v-4h8c1.1,0,2-0.9,2-2s-0.9-2-2-2h-8v-4h8c1.1,0,2-0.896,2-2s-0.9-2-2-2h-8v-4h8c1.1,0,2-0.896,2-2  s-0.9-2-2-2h-8v-4H90z M70,68c0,1.1-0.9,2-2,2H28c-1.104,0-2-0.9-2-2V28c0-1.104,0.896-2,2-2h40c1.1,0,2,0.896,2,2V68z" style="fill: rgb(4, 165, 229);"/>
</svg>